<svg width="14" height="18" viewBox="0 0 14 18" fill="none" xmlns="http://www.w3.org/2000/svg">
<path fill-rule="evenodd" clip-rule="evenodd" d="M8.863 2.84208L8.86687 2.8421L8.87073 2.84208H12.6C12.7238 2.84208 12.8425 2.89199 12.93 2.98082C13.0175 3.06966 13.0667 3.19014 13.0667 3.31577V4.73682H0.933333V3.31577C0.933333 3.19014 0.9825 3.06966 1.07002 2.98082C1.15753 2.89199 1.27623 2.84208 1.4 2.84208H5.12967L5.13353 2.8421L5.1374 2.84208H8.863ZM9.33353 1.89472V1.42105C9.33353 1.04416 9.18603 0.682714 8.92348 0.416216C8.66093 0.149717 8.30484 0 7.93353 0H6.06687C5.69556 0 5.33947 0.149717 5.07692 0.416216C4.81437 0.682714 4.66687 1.04416 4.66687 1.42105V1.89472H1.4C1.0287 1.89472 0.672601 2.04443 0.41005 2.31093C0.147499 2.57743 0 2.93888 0 3.31577V5.2105C0 5.33613 0.0491666 5.45662 0.136684 5.54545C0.224201 5.63428 0.342899 5.68419 0.466667 5.68419H0.933472V16.5789C0.933472 16.9558 1.08097 17.3173 1.34352 17.5838C1.60607 17.8503 1.96217 18 2.33347 18H11.6668C12.0381 18 12.3942 17.8503 12.6568 17.5838C12.9193 17.3173 13.0668 16.9558 13.0668 16.5789V5.68419H13.5333C13.6571 5.68419 13.7758 5.63428 13.8633 5.54545C13.9508 5.45662 14 5.33613 14 5.2105V3.31577C14 2.93888 13.8525 2.57743 13.5899 2.31093C13.3274 2.04443 12.9713 1.89472 12.6 1.89472H9.33353ZM5.6002 1.89472H8.4002V1.42105C8.4002 1.29542 8.35103 1.17494 8.26352 1.08611C8.176 0.997272 8.0573 0.947367 7.93353 0.947367H6.06687C5.9431 0.947367 5.8244 0.997272 5.73688 1.08611C5.64937 1.17494 5.6002 1.29542 5.6002 1.42105V1.89472ZM1.86681 5.68419H12.1335V16.5789C12.1335 16.7046 12.0843 16.8251 11.9968 16.9139C11.9093 17.0027 11.7906 17.0526 11.6668 17.0526H2.33347C2.2097 17.0526 2.09101 17.0027 2.00349 16.9139C1.91597 16.8251 1.86681 16.7046 1.86681 16.5789V5.68419ZM5.13354 15.1578C5.00977 15.1578 4.89107 15.1079 4.80355 15.0191C4.71604 14.9303 4.66687 14.8098 4.66687 14.6842V8.05258C4.66687 7.92695 4.71604 7.80646 4.80355 7.71763C4.89107 7.6288 5.00977 7.57889 5.13354 7.57889C5.25731 7.57889 5.37601 7.6288 5.46352 7.71763C5.55104 7.80646 5.60021 7.92695 5.60021 8.05258V14.6842C5.60021 14.8098 5.55104 14.9303 5.46352 15.0191C5.37601 15.1079 5.25731 15.1578 5.13354 15.1578ZM8.53695 15.0191C8.62447 15.1079 8.74316 15.1578 8.86693 15.1578C8.9907 15.1578 9.10939 15.1079 9.19691 15.0191C9.28443 14.9303 9.33359 14.8098 9.33359 14.6842V8.05258C9.33359 7.92695 9.28443 7.80646 9.19691 7.71763C9.10939 7.6288 8.9907 7.57889 8.86693 7.57889C8.74316 7.57889 8.62447 7.6288 8.53695 7.71763C8.44943 7.80646 8.40027 7.92695 8.40027 8.05258V14.6842C8.40027 14.8098 8.44943 14.9303 8.53695 15.0191Z" fill="#AAAAAA"/>
</svg>
