<svg width="20" height="20" viewBox="0 0 20 20" fill="none" xmlns="http://www.w3.org/2000/svg">
<path d="M14.9083 17.375H5.09168C4.82694 17.3752 4.56977 17.2867 4.36129 17.1235C4.15281 16.9604 4.00507 16.732 3.94168 16.475L1.73335 7.63333C1.7118 7.54725 1.71017 7.45739 1.72858 7.37059C1.747 7.2838 1.78497 7.20234 1.83961 7.13243C1.89426 7.06252 1.96413 7.006 2.04391 6.96716C2.12369 6.92833 2.21128 6.9082 2.30001 6.90833H17.7C17.7887 6.9082 17.8763 6.92833 17.9561 6.96716C18.0359 7.006 18.1058 7.06252 18.1604 7.13243C18.2151 7.20234 18.253 7.2838 18.2714 7.37059C18.2899 7.45739 18.2882 7.54725 18.2667 7.63333L16.0583 16.475C15.995 16.732 15.8472 16.9604 15.6387 17.1235C15.4302 17.2867 15.1731 17.3752 14.9083 17.375V17.375Z" stroke="#D9E031" stroke-width="2" stroke-linecap="round" stroke-linejoin="round"/>
<path d="M8.16667 2.625L5.75 6.90833" stroke="#D9E031" stroke-width="2" stroke-linecap="round" stroke-linejoin="round"/>
<path d="M11.5667 2.625L13.9917 6.90833" stroke="#D9E031" stroke-width="2" stroke-linecap="round" stroke-linejoin="round"/>
</svg>
