<svg width="15" height="16" viewBox="0 0 15 16" fill="none" xmlns="http://www.w3.org/2000/svg">
<path d="M14.7567 14.4843L11.8125 11.2762C12.8266 10.0396 13.3823 8.48359 13.3823 6.86374C13.3823 3.07913 10.3806 0 6.69113 0C3.0017 0 0 3.07913 0 6.86374C0 10.6484 3.0017 13.7275 6.69113 13.7275C8.07619 13.7275 9.39609 13.299 10.5246 12.4854L13.4988 15.7255C13.6649 15.9024 13.8883 16 14.1278 16C14.3544 16 14.5694 15.9114 14.7326 15.7502C15.0794 15.4079 15.0904 14.8403 14.7567 14.4843ZM6.69113 1.79054C9.4182 1.79054 11.6367 4.06632 11.6367 6.86374C11.6367 9.66117 9.4182 11.9369 6.69113 11.9369C3.96406 11.9369 1.74551 9.66117 1.74551 6.86374C1.74551 4.06632 3.96406 1.79054 6.69113 1.79054Z" fill="#464856"/>
</svg>
